<svg width="517" height="652" viewBox="0 0 517 652" fill="none" xmlns="http://www.w3.org/2000/svg">
<path d="M0 629.83C112.723 602.498 188.076 505.651 277.448 431.718C355.455 367.186 451.993 317.636 490.545 224.024C528.593 131.637 483.407 30.3409 483.893 -69.5731C484.487 -191.498 550.19 -319.75 493.718 -427.809C435.199 -539.784 311.342 -614.145 187.153 -637.383C66.946 -659.876 -51.526 -603.676 -161.623 -550.438C-258.018 -503.826 -345.8 -440.17 -405.08 -351.004C-460.073 -268.285 -461.484 -166.52 -481.539 -69.235C-503.057 35.1479 -543.272 135.361 -527.055 240.698C-507.379 368.496 -483.899 514.296 -379.875 591.098C-275.361 668.262 -126.255 660.443 0 629.83Z" fill="#66D0A1"/>
</svg>
