<svg width="512" height="1200" viewBox="0 0 512 1248" fill="none" xmlns="http://www.w3.org/2000/svg">
<path d="M647.75 1210.64C771.863 1223.11 916.707 1288.07 1014.39 1210.49C1113.78 1131.55 1054.27 965.139 1103.93 848.331C1151.57 736.271 1281.64 667.555 1296.59 546.71C1312.89 415.016 1274.3 272.675 1187.61 172.211C1100.86 71.6849 963.885 31.2399 832.913 9.3919C712.068 -10.7661 586.02 0.522892 475.516 53.4259C373.928 102.061 322.502 209.301 244.877 290.909C162.555 377.455 30.6014 430.887 5.41535 547.646C-19.8956 664.982 60.3404 776.59 117.322 882.238C171.005 981.77 229.446 1081.75 325.595 1141.28C420.92 1200.3 536.196 1199.43 647.75 1210.64Z" fill="#526777"/>
</svg>
